<svg width="16" height="16" viewBox="0 0 16 16" fill="none" xmlns="http://www.w3.org/2000/svg">
<path d="M14.49 0.690002H1.49C1.27424 0.689986 1.06717 0.775005 0.913678 0.926629C0.760182 1.07825 0.672629 1.28426 0.669998 1.5V14.5C0.672629 14.7157 0.760182 14.9218 0.913678 15.0734C1.06717 15.225 1.27424 15.31 1.49 15.31H8.49V9.66H6.6V7.44H8.5V5.82C8.46103 5.43381 8.50706 5.04376 8.63484 4.67724C8.76263 4.31072 8.96909 3.97661 9.23972 3.69836C9.51035 3.4201 9.8386 3.20445 10.2014 3.06653C10.5643 2.92861 10.9529 2.87177 11.34 2.9C11.8947 2.90454 12.4488 2.93792 13 3V5H11.88C10.96 5 10.78 5.43 10.78 6.07V7.48H13L12.72 9.69H10.78V15.35H14.49C14.7058 15.35 14.9128 15.265 15.0663 15.1134C15.2198 14.9618 15.3074 14.7557 15.31 14.54V1.5C15.3074 1.28426 15.2198 1.07825 15.0663 0.926629C14.9128 0.775005 14.7058 0.689986 14.49 0.690002Z" fill="#404040"/>
</svg>
