<svg width="18" height="22" viewBox="0 0 18 22" fill="none" xmlns="http://www.w3.org/2000/svg">
<path d="M1.38 21.56C1.1661 21.5616 0.95562 21.5063 0.770004 21.4C0.595543 21.3127 0.448862 21.1785 0.346415 21.0125C0.243968 20.8464 0.189805 20.6551 0.190003 20.46V1.54003C0.195142 1.38942 0.230092 1.24132 0.292831 1.1043C0.35557 0.967281 0.444853 0.844061 0.555517 0.741767C0.66618 0.639474 0.796027 0.560136 0.937547 0.508344C1.07907 0.456552 1.22945 0.433333 1.38 0.44003H16.62C16.7706 0.433333 16.9209 0.456552 17.0625 0.508344C17.204 0.560136 17.3338 0.639474 17.4445 0.741767C17.5552 0.844061 17.6444 0.967281 17.7072 1.1043C17.7699 1.24132 17.8049 1.38942 17.81 1.54003V20.46C17.8102 20.6551 17.756 20.8464 17.6536 21.0125C17.5511 21.1785 17.4045 21.3127 17.23 21.4C17.0319 21.518 16.8056 21.5803 16.575 21.5803C16.3444 21.5803 16.1181 21.518 15.92 21.4L9 16.82L2.08 21.35C1.8728 21.4882 1.62905 21.5613 1.38 21.56ZM1.49 1.74003V20.19L9 15.26L16.51 20.19V1.74003H1.49Z" fill="#404040"/>
</svg>
