<svg width="20" height="20" viewBox="0 0 20 20" fill="none" xmlns="http://www.w3.org/2000/svg">
<path d="M9.53 19.27H9.28C9.22066 19.2442 9.16715 19.2066 9.12271 19.1595C9.07826 19.1125 9.04379 19.0569 9.02137 18.9962C8.99895 18.9355 8.98905 18.8709 8.99225 18.8062C8.99545 18.7416 9.01169 18.6782 9.04 18.62C9.04 18.52 9.11 18.42 9.15 18.32C9.32093 17.8626 9.40897 17.3783 9.41 16.89C9.41738 16.8278 9.41106 16.7647 9.39149 16.7051C9.37191 16.6456 9.33956 16.591 9.29669 16.5453C9.25382 16.4996 9.20147 16.4638 9.14331 16.4404C9.08515 16.417 9.02259 16.4067 8.96 16.41C8.56742 16.3777 8.17685 16.3243 7.79 16.25C5.47286 15.8855 3.37188 14.6783 1.89 12.86C1.05131 11.8827 0.52335 10.6774 0.373705 9.39827C0.224061 8.11917 0.45954 6.82451 1.05 5.68002C1.83223 4.07749 3.12747 2.78225 4.73 2.00002C7.09504 0.758327 9.82625 0.403625 12.43 1.00002C14.6904 1.39748 16.728 2.60649 18.16 4.40002C18.7879 5.14651 19.2384 6.02571 19.4774 6.97145C19.7164 7.91718 19.7378 8.90481 19.54 9.86001C19.2232 11.2759 18.5003 12.5687 17.46 13.58C16.2373 14.8106 14.8977 15.9192 13.46 16.89C12.1991 17.7992 10.8606 18.5956 9.46 19.27H9.53ZM12.61 8.52002V6.71002C12.61 6.36002 12.43 6.17002 12.13 6.16002C11.83 6.15002 11.65 6.36002 11.65 6.72002V8.63002C11.65 8.72002 11.65 8.84002 11.65 8.88002C11.65 8.92002 11.51 8.79002 11.46 8.72002C11.23 8.42002 11.01 8.11002 10.78 7.80002C10.44 7.34002 10.11 6.88002 9.78 6.43002C9.74546 6.36585 9.69757 6.30983 9.63955 6.26574C9.58154 6.22164 9.51475 6.19049 9.44368 6.17438C9.37261 6.15827 9.29891 6.15758 9.22756 6.17235C9.1562 6.18712 9.08883 6.21702 9.03 6.26002C8.96422 6.32438 8.91386 6.40279 8.88269 6.48938C8.85152 6.57597 8.84034 6.66849 8.85 6.76002V10.31C8.84623 10.4091 8.86326 10.5079 8.9 10.6C8.9355 10.6982 9.00335 10.7814 9.0924 10.8359C9.18145 10.8904 9.2864 10.913 9.39 10.9C9.49892 10.8904 9.6006 10.8414 9.67605 10.7623C9.7515 10.6832 9.79557 10.5793 9.8 10.47C9.80498 10.3801 9.80498 10.2899 9.8 10.2C9.8 9.59002 9.8 8.99002 9.8 8.39002C9.8 8.31002 9.8 8.20002 9.86 8.17002C9.92 8.14002 9.98 8.24002 10.02 8.30002L10.65 9.16002C11.03 9.67002 11.39 10.16 11.77 10.68C11.8238 10.7698 11.9067 10.8386 12.0048 10.875C12.103 10.9113 12.2107 10.9131 12.31 10.88C12.4137 10.8475 12.5039 10.782 12.567 10.6936C12.6302 10.6052 12.6628 10.4986 12.66 10.39V8.52002H12.61ZM13.38 8.52002V10.33C13.38 10.72 13.56 10.89 13.94 10.89H15.69C15.7557 10.8985 15.8225 10.893 15.8859 10.8738C15.9494 10.8546 16.0081 10.8223 16.0581 10.7788C16.1082 10.7354 16.1485 10.6818 16.1764 10.6217C16.2043 10.5616 16.2191 10.4963 16.22 10.43C16.2187 10.3635 16.2042 10.2979 16.1772 10.237C16.1503 10.1762 16.1114 10.1214 16.063 10.0757C16.0146 10.0301 15.9575 9.99457 15.8952 9.97127C15.8328 9.94797 15.7665 9.93734 15.7 9.94001H15C14.21 9.94001 14.35 10.06 14.32 9.26002C14.32 9.07002 14.32 9.00002 14.57 9.01002C14.96 9.01002 15.34 9.01002 15.73 9.01002C15.8556 9.01004 15.9762 8.96085 16.0659 8.87298C16.1557 8.78511 16.2074 8.66558 16.21 8.54002C16.213 8.47534 16.2022 8.41076 16.1785 8.35052C16.1548 8.29027 16.1186 8.23571 16.0724 8.1904C16.0261 8.14509 15.9708 8.11006 15.9101 8.08759C15.8494 8.06512 15.7846 8.05573 15.72 8.06002H15C14.34 8.06002 14.35 8.06002 14.35 7.41002C14.35 7.16002 14.44 7.09002 14.67 7.10002H15.67C15.7878 7.10222 15.9033 7.06723 16 7.00002C16.0907 6.95671 16.1635 6.88298 16.2055 6.79163C16.2475 6.70028 16.2562 6.5971 16.23 6.50002C16.2128 6.39229 16.1563 6.29479 16.0713 6.22642C15.9863 6.15805 15.8789 6.1237 15.77 6.13002H14C13.56 6.13002 13.41 6.29002 13.41 6.74002V8.51002L13.38 8.52002ZM3.81 8.51002C3.81 9.12002 3.81 9.74002 3.81 10.35C3.81 10.74 3.98 10.9 4.37 10.9H6.08C6.14938 10.9083 6.21972 10.9023 6.28667 10.8823C6.35362 10.8623 6.41575 10.8288 6.46919 10.7837C6.52264 10.7387 6.56627 10.6832 6.59737 10.6207C6.62847 10.5581 6.64639 10.4898 6.65 10.42C6.645 10.352 6.62643 10.2858 6.59538 10.2251C6.56434 10.1644 6.52144 10.1106 6.46924 10.0668C6.41703 10.023 6.35658 9.99005 6.29144 9.97C6.2263 9.94995 6.15781 9.94315 6.09 9.95002H5.09C4.74 9.95002 4.73 9.95002 4.73 9.60002C4.73 8.66002 4.73 7.73002 4.73 6.79002C4.76005 6.6719 4.76005 6.54813 4.73 6.43002C4.68467 6.33586 4.60799 6.26041 4.51311 6.21662C4.41823 6.17282 4.31106 6.16342 4.21 6.19002C4.10673 6.20698 4.01319 6.26103 3.94691 6.34203C3.88064 6.42304 3.84618 6.52543 3.85 6.63002V8.52002L3.81 8.51002ZM8.14 8.52002C8.14 7.90002 8.14 7.28002 8.14 6.66002C8.14972 6.59461 8.14523 6.52787 8.12683 6.46436C8.10843 6.40085 8.07655 6.34205 8.03336 6.29197C7.99018 6.24189 7.93671 6.20172 7.87659 6.17417C7.81647 6.14663 7.75113 6.13238 7.685 6.13238C7.61888 6.13238 7.55353 6.14663 7.49341 6.17417C7.43329 6.20172 7.37982 6.24189 7.33664 6.29197C7.29345 6.34205 7.26157 6.40085 7.24317 6.46436C7.22477 6.52787 7.22028 6.59461 7.23 6.66002C7.23 7.90002 7.23 9.13001 7.23 10.36C7.23 10.7 7.42 10.91 7.71 10.9C8 10.89 8.15 10.69 8.16 10.36V8.53002" fill="#404040"/>
</svg>
