<svg width="18" height="15" viewBox="0 0 18 15" fill="none" xmlns="http://www.w3.org/2000/svg">
<path d="M6.07 14.06C7.33399 14.0986 8.59302 13.8853 9.77373 13.4324C10.9544 12.9795 12.0332 12.2962 12.9472 11.4223C13.8612 10.5483 14.5921 9.5012 15.0973 8.34193C15.6025 7.18266 15.872 5.93444 15.89 4.66999C15.89 4.52999 15.89 4.38999 15.89 4.24999C16.5609 3.78733 17.1434 3.20818 17.61 2.53999C16.9702 2.80369 16.2973 2.97865 15.61 3.05999C16.3217 2.65434 16.8618 2.00403 17.13 1.22999C16.4651 1.59757 15.7462 1.85746 15 1.99999C14.6672 1.67455 14.2731 1.41854 13.8404 1.24686C13.4078 1.07518 12.9454 0.991263 12.48 0.999988C12.0353 0.986672 11.5923 1.06129 11.1764 1.21957C10.7606 1.37785 10.3801 1.61668 10.0568 1.92234C9.73349 2.22801 9.4737 2.59451 9.29235 3.0008C9.111 3.4071 9.01164 3.84521 9 4.28999C9.00132 4.54205 9.02812 4.79332 9.08 5.03999C7.72709 4.97759 6.40121 4.63939 5.18372 4.04612C3.96624 3.45285 2.88283 2.61704 2 1.58999C1.55636 2.30969 1.41259 3.17465 1.59956 3.99917C1.78652 4.82369 2.28932 5.54203 3 5.99999C2.45627 5.97906 1.92375 5.8391 1.44 5.58999C1.4519 6.36818 1.73518 7.11778 2.24093 7.70933C2.74667 8.30089 3.44312 8.69726 4.21 8.82999C3.91351 8.91106 3.60737 8.95143 3.3 8.94999C3.08193 8.95034 2.86431 8.93025 2.65 8.88999C2.88816 9.55712 3.32591 10.1348 3.90379 10.5445C4.48166 10.9542 5.17164 11.1761 5.88 11.18C4.64087 12.103 3.13511 12.5979 1.59 12.59C1.31687 12.6052 1.04312 12.6052 0.769997 12.59C2.36107 13.5568 4.18822 14.0655 6.05 14.06" fill="#404040"/>
</svg>
