<svg width="270" height="11" viewBox="0 0 270 11" fill="none" xmlns="http://www.w3.org/2000/svg">
<path fill-rule="evenodd" clip-rule="evenodd" d="M270 11C263.715 11 260.537 8.371 257.463 5.828C254.366 3.266 251.44 0.846 245.45 0.846C239.46 0.846 236.535 3.266 233.437 5.828C230.363 8.371 227.185 11 220.9 11C214.616 11 211.438 8.371 208.365 5.828C205.268 3.266 202.343 0.846 196.354 0.846C190.364 0.846 187.438 3.266 184.342 5.829C181.268 8.371 178.09 11 171.806 11C165.522 11 162.344 8.371 159.271 5.828C156.174 3.266 153.249 0.846 147.26 0.846C141.271 0.846 138.345 3.266 135.248 5.829C132.175 8.371 128.997 11 122.714 11C116.43 11 113.253 8.371 110.18 5.828C107.083 3.266 104.159 0.846 98.17 0.846C92.182 0.846 89.258 3.266 86.162 5.828C83.089 8.371 79.911 11 73.628 11C67.345 11 64.169 8.371 61.096 5.828C58 3.266 55.076 0.846 49.088 0.846C43.099 0.846 40.174 3.266 37.078 5.828C34.005 8.371 30.827 11 24.543 11C18.26 11 15.083 8.371 12.01 5.828C8.913 3.266 5.988 0.846 0 0.846V0C6.283 0 9.461 2.629 12.534 5.172C15.63 7.734 18.555 10.154 24.543 10.154C30.532 10.154 33.457 7.734 36.554 5.172C39.627 2.629 42.805 0 49.088 0C55.371 0 58.548 2.629 61.621 5.172C64.716 7.734 67.64 10.154 73.628 10.154C79.616 10.154 82.541 7.734 85.637 5.172C88.71 2.629 91.887 0 98.17 0C104.453 0 107.631 2.629 110.704 5.172C113.8 7.734 116.726 10.154 122.714 10.154C128.703 10.154 131.627 7.734 134.724 5.172C137.797 2.629 140.975 0 147.26 0C153.544 0 156.721 2.629 159.795 5.172C162.891 7.734 165.817 10.154 171.806 10.154C177.795 10.154 180.721 7.734 183.818 5.172C186.891 2.629 190.069 0 196.354 0C202.638 0 205.816 2.629 208.889 5.172C211.986 7.734 214.911 10.154 220.9 10.154C226.89 10.154 229.816 7.734 232.913 5.172C235.987 2.629 239.165 0 245.45 0C251.736 0 254.913 2.629 257.987 5.172C261.085 7.734 264.01 10.154 270 10.154V11Z" fill="#FABCF0"/>
</svg>
